<?xml version="1.0" encoding="utf-8"?>
<!-- Generator: Adobe Illustrator 26.0.1, SVG Export Plug-In . SVG Version: 6.00 Build 0)  -->
<svg version="1.1" id="Layer_1" xmlns="http://www.w3.org/2000/svg" xmlns:xlink="http://www.w3.org/1999/xlink" x="0px" y="0px"
	 viewBox="0 0 127.3 77.4" style="enable-background:new 0 0 127.3 77.4;" xml:space="preserve">
<style type="text/css">
	.st0{fill:#2464B3;}
</style>
<path class="st0" d="M63.6,47.3c-0.5-0.6-0.9-1.1-1.3-1.5L19.1,2.6c-2.8-2.7-5.4-3.3-8.6-1.8c-0.5,0.3-1,0.6-1.5,1
	C6.7,4.2,4.2,6.4,2,8.8c-2.8,3.2-2.6,6.8,0.5,10C10.6,26.9,18.6,35,26.7,43c10.8,10.8,21.7,21.7,32.5,32.5c2.3,2.5,6.1,2.6,8.6,0.3
	c0.1-0.1,0.2-0.2,0.3-0.3c18.8-18.8,37.7-37.6,56.5-56.5c3.6-3.6,3.6-7.3,0-11c-1.8-1.9-3.7-3.7-5.5-5.5c-3.5-3.5-7.5-3.5-11,0
	L64.8,45.9C64.4,46.3,64.1,46.7,63.6,47.3z"/>
</svg>
