<svg id="Layer_1" data-name="Layer 1" xmlns="http://www.w3.org/2000/svg" viewBox="0 0 145.83 125.74"><defs><style>.cls-1{fill:#818181;}</style></defs><path class="cls-1" d="M64.75,44.87c0,4,0,8,0,12-.11,8.38-3.88,13.42-12.16,14.05a184.93,184.93,0,0,1-27.85,0C16.4,70.25,12.49,65.43,12.26,57c-.22-8.16-.2-16.33,0-24.48S16.68,19.3,24.83,18.78a194.22,194.22,0,0,1,27.82.06c8.34.66,12,5.58,12.09,14.07C64.8,36.89,64.75,40.88,64.75,44.87Z" transform="translate(-6.61 -18.31)"/><path class="cls-1" d="M79.75,132.13h63.78a23.7,23.7,0,0,1,3.68.17,5.82,5.82,0,0,1-.1,11.59,17.9,17.9,0,0,1-2.84.15H13.87c-4.36-.1-7.31-2.54-7.26-6s3-5.89,7.37-5.89Q46.86,132.11,79.75,132.13Z" transform="translate(-6.61 -18.31)"/><path class="cls-1" d="M79.52,106.55H14.61c-5,0-7.93-2.15-8-5.73S9.59,95,14.53,95q65.21,0,130.39,0c.76,0,1.52,0,2.27,0a5.52,5.52,0,0,1,5.23,5.67,5.42,5.42,0,0,1-5.15,5.73c-2.65.18-5.31.07-8,.07Z" transform="translate(-6.61 -18.31)"/><path class="cls-1" d="M120.62,69.44c-7.87,0-15.74,0-23.61,0a15.15,15.15,0,0,1-4.73-.75,5.18,5.18,0,0,1-3.56-5.3,5.28,5.28,0,0,1,3.77-5.18,13.71,13.71,0,0,1,4.18-.63q24-.06,48.07,0a12.73,12.73,0,0,1,3.37.38,5.67,5.67,0,0,1,4.29,5.67A5.53,5.53,0,0,1,148.15,69a14.28,14.28,0,0,1-3.93.42C136.35,69.46,128.48,69.44,120.62,69.44Z" transform="translate(-6.61 -18.31)"/><path class="cls-1" d="M120.81,20.41c8.43,0,16.86,0,25.3,0,3.61,0,5.88,1.84,6.27,4.89.48,3.71-1.94,6.43-6.06,6.57-3.5.12-7,0-10.52,0H97.14c-.85,0-1.71,0-2.56,0a6,6,0,0,1-5.87-5.78,5.91,5.91,0,0,1,5.94-5.68c6.54-.09,13.08,0,19.62,0Z" transform="translate(-6.61 -18.31)"/></svg>