<svg id="Layer_1" data-name="Layer 1" xmlns="http://www.w3.org/2000/svg" viewBox="0 0 148.58 148.57"><defs><style>.cls-1{fill:#818181;}</style></defs><path class="cls-1" d="M80,154.26c-11.12,0-22.24.06-33.36,0-24.46-.16-40.76-16.37-40.87-40.75Q5.63,79.77,5.79,46C5.91,22.38,22.38,5.91,46,5.8q34.11-.16,68.22,0c23.35.12,39.86,16.72,40,40.16q.15,33.92,0,67.84c-.09,23.82-16.59,40.27-40.47,40.44C102.5,154.32,91.26,154.26,80,154.26ZM44.89,60.38c10.17-1.62,21.53,4.08,26.6,12.94a29.79,29.79,0,0,1,4.18,15.54c-.13,8.9,0,17.8,0,26.7a18.91,18.91,0,0,0,.21,3.69c.64,3.09,2.52,4.77,5.8,4.43,3-.31,4.2-2.24,4.26-5.09.22-11.35,0-22.74.78-34C87.58,72.19,97.8,62,110.05,60.13a41.35,41.35,0,0,1,5.3,0c-1.16,1.57-1.87,2.51-2.56,3.47-2.19,3.06-2.16,6,.06,8,2.78,2.53,5.36,1.36,7.55-.72,4.13-3.9,8.14-7.94,12.07-12.05,2.13-2.24,3.25-5.15.93-7.67-4.51-4.89-9.3-9.56-14.21-14-2.25-2-5-1.53-6.89.82-1.77,2.18-1.53,4.6.3,6.76,1,1.17,2.07,2.27,2.77,3-6.63,2.24-13.46,3.53-19.21,6.75s-10.41,8.37-16,13C72.2,55,59.75,49.14,43.69,48.81c1.55-1.71,2.35-2.61,3.16-3.49,2.35-2.58,2.64-5.54.74-7.62-2.05-2.25-4.93-2.48-7.57,0-4.44,4.12-8.68,8.45-12.84,12.84-2.26,2.38-2.41,5.26-.12,7.68,4.34,4.56,8.8,9,13.4,13.32,2,1.84,4.42,2.24,6.66.11s2.18-4.58.74-7.07C47.08,63.21,46.06,62,44.89,60.38Z" transform="translate(-5.71 -5.71)"/></svg>