<svg id="Layer_1" data-name="Layer 1" xmlns="http://www.w3.org/2000/svg" viewBox="0 0 137.02 120.08"><defs><style>.cls-1{fill:#2f2f2f;}</style></defs><path class="cls-1" d="M74.8,58H12.53c-1.63,0-3.41-.08-4.47,1.34A7.47,7.47,0,0,0,6.5,63.1c-.2,4-.11,7.94-.06,11.91a4.81,4.81,0,0,0,4.78,5.12c.42,0,.84,0,1.25,0H137.32c2,0,4-.15,5.06-2.11a8,8,0,0,0,.92-3.54c.12-3.6.08-7.21,0-10.81,0-4-1.79-5.7-5.8-5.7Z" transform="translate(-6.38 -9.04)"/><path class="cls-1" d="M75,129.12h62.27c4.43,0,6.06-1.61,6.08-6,0-3.44,0-6.89,0-10.34,0-4-1.72-5.72-5.76-5.72H12.26c-4.16,0-5.83,1.74-5.84,6,0,3.5,0,7,0,10.5,0,3.83,1.83,5.65,5.68,5.65Z" transform="translate(-6.38 -9.04)"/><path class="cls-1" d="M75,9H12.55c-4.49,0-6.12,1.64-6.13,6.14,0,3.5,0,7,0,10.5s1.76,5.3,5.24,5.45c.36,0,.73,0,1.09,0H137.15c1.78,0,3.7.11,4.82-1.58A7.43,7.43,0,0,0,143.28,26c.16-3.91.13-7.84,0-11.75-.08-3.57-1.91-5.22-5.61-5.22Z" transform="translate(-6.38 -9.04)"/></svg>