<svg id="Layer_1" data-name="Layer 1" xmlns="http://www.w3.org/2000/svg" viewBox="0 0 127.26 77.43"><defs><style>.cls-1{fill:#2f2f2f;}</style></defs><path class="cls-1" d="M80,91.79c-.53-.62-.89-1.1-1.31-1.52L35.52,47.11c-2.75-2.74-5.37-3.28-8.63-1.77a5.43,5.43,0,0,0-1.45,1c-2.39,2.32-4.87,4.57-7.1,7-2.84,3.15-2.57,6.83.55,10Q31,75.46,43.06,87.52,59.32,103.76,75.58,120a6.07,6.07,0,0,0,8.89,0q28.25-28.22,56.47-56.45c3.59-3.59,3.58-7.32,0-11q-2.73-2.78-5.49-5.49c-3.53-3.47-7.49-3.45-11,0L81.19,90.4C80.81,90.79,80.48,91.23,80,91.79Z" transform="translate(-16.37 -44.5)"/></svg>