<?xml version="1.0" encoding="utf-8"?>
<!-- Generator: Adobe Illustrator 18.0.0, SVG Export Plug-In . SVG Version: 6.00 Build 0)  -->
<!DOCTYPE svg PUBLIC "-//W3C//DTD SVG 1.1//EN" "http://www.w3.org/Graphics/SVG/1.1/DTD/svg11.dtd">
<svg version="1.1" id="Layer_1" xmlns="http://www.w3.org/2000/svg" xmlns:xlink="http://www.w3.org/1999/xlink" x="0px" y="0px"
	 viewBox="0 0 150 150" enable-background="new 0 0 150 150" xml:space="preserve">
<g display="none">
	<path display="inline" fill="#BEBEBE" d="M107.2,95.9c1.7,0,2.9,0,4.1,0c2.2,0,4,0.7,5.6,2.3c8.9,8.9,17.8,17.8,26.8,26.8
		c3.5,3.5,3.5,7.3,0,10.9c-2.5,2.5-5,5.1-7.7,7.4c-2.6,2.2-6.1,1.9-8.6-0.4c-1-1-2-2-3-3c-8-8-15.9-16-23.9-23.9
		c-2-1.9-3-4.1-2.8-6.8c0.1-1,0-2.1,0-3.4C78.9,119,59.1,121.8,38.2,113c-13-5.5-22.6-15-28.7-27.6c-11.1-23.1-5.8-50,12-67.1
		C43.4-3,77.3-2,97.3,14.4c12.2,10,20,22.5,21.8,38.4C120.8,68.6,117,82.8,107.2,95.9z M61.6,24.3C42.3,23.7,25,41.1,25.8,61.4
		c0.7,17.8,16,34.8,36.5,34.6c18.7-0.2,36.7-16.7,35.2-38.7C96.3,40.7,81.3,23.8,61.6,24.3z"/>
</g>
<g>
	<path fill="#BEBEBE" d="M77.8,4.8c10.4,0.2,20,2.6,28.6,8.4c12.4,8.3,20.4,19.6,23.2,34.5c2.6,13.8-0.2,26.5-7.5,38.3
		c-7.6,12.4-16.3,24-24.6,36c-4.6,6.7-9.2,13.4-13.8,20c-1.5,2.1-3.3,3.4-6.1,3.4c-2.6,0-4.3-1.3-5.7-3.3
		c-6.3-9.1-12.7-18.3-19-27.4c-5.9-8.7-11.9-17.3-17.7-26c-4-5.9-7.1-12.4-9-19.3c-1.3-4.6-1.6-9.4-1.1-14.2c0.4-4,0.8-8,1.8-11.9
		c1.8-7.5,5.5-14.1,10.6-19.9c3.9-4.5,8.3-8.3,13.3-11.3c5.7-3.5,11.9-5.5,18.4-6.5C72.1,5.2,75,5.1,77.8,4.8z M77.8,35.7
		c-11.6-0.4-22.1,9.6-22.1,22c0,12.4,10.4,22,22.1,22c12,0,22.1-10,22.1-22.1C99.8,45.5,89.6,35.4,77.8,35.7z"/>
</g>
</svg>
